<svg xmlns="http://www.w3.org/2000/svg" xmlns:xlink="http://www.w3.org/1999/xlink" width="120" height="1228"><symbol id="sprite-warning" viewBox="0 0 80 80"><title>warning</title><path fill="none" stroke="#BABCBE" stroke-width="4" stroke-miterlimit="10" d="M435.1 599l30-45.1c1.9-2.9 6.2-2.9 8.2 0l30.2 45.1c2.2 3.3-.2 7.6-4.1 7.6h-60.2c-3.9 0-6.3-4.3-4.1-7.6z"/><circle fill="#7C807F" cx="469.1" cy="596" r="3.3"/><path fill="#7C807F" d="M473 569.8c0-2.7-1.8-4.8-4-4.8s-3.9 2.5-3.9 5.2l2.4 17.6c0 1 .6 1.7 1.4 1.7.8 0 1.4-.8 1.4-1.7l2.7-18z"/><path fill="none" stroke="#BABCBE" stroke-width="4" stroke-miterlimit="10" d="M6.1 60l30-45.1c1.9-2.9 6.2-2.9 8.2 0L74.4 60c2.2 3.3-.2 7.6-4.1 7.6H10.2c-3.9 0-6.3-4.3-4.1-7.6z"/><circle fill="#7C807F" cx="40.1" cy="57" r="3.3"/><path fill="#7C807F" d="M44 30.8c0-2.7-1.8-4.8-4-4.8s-3.9 2.5-3.9 5.2l2.4 17.6c0 1 .6 1.7 1.4 1.7s1.4-.8 1.4-1.7l2.7-18z"/></symbol><symbol id="sprite-view-small" viewBox="0 0 10 10"><title>view-small</title><g class="view-size-svg"><path d="M0 0h10v1H0zM0 2.25h10v1H0zM0 4.5h10v1H0zM0 6.75h10v1H0zM0 9h10v1H0z"/></g></symbol><symbol id="sprite-view-medium" viewBox="0 0 10 10"><title>view-medium</title><g class="view-size-svg"><path d="M0 0h10v1.75H0zM0 2.75h10V4.5H0zM0 5.5h10v1.75H0zM0 8.25h10V10H0z"/></g></symbol><symbol id="sprite-view-large" viewBox="0 0 10 10"><title>view-large</title><g class="view-size-svg"><path d="M0 0h10v4.5H0zM0 5.5h10V10H0z"/></g></symbol><symbol id="sprite-round-remove" viewBox="0 15 30 30"><title>round-remove</title><path fill="#E32C2C" d="M7.5 29.5h15v1h-15z"/><path fill="#E32C2C" d="M15 18.5c6.3 0 11.5 5.2 11.5 11.5S21.3 41.5 15 41.5 3.5 36.3 3.5 30 8.7 18.5 15 18.5m0-1C8.1 17.5 2.5 23.1 2.5 30S8.1 42.5 15 42.5 27.5 36.9 27.5 30 21.9 17.5 15 17.5z"/></symbol><symbol id="sprite-round-close" viewBox="0 0 30 30"><title>round-close</title><circle fill="#FFF" cx="15" cy="15" r="15"/><g class="frost-svg-round-close"><path transform="rotate(45.001 15 15)" d="M13.5 7h3v15.9h-3z"/><path transform="rotate(45.001 15 15)" d="M7 13.5h15.9v3H7z"/><path d="M15 2c7.2 0 13 5.8 13 13s-5.8 13-13 13S2 22.2 2 15 7.8 2 15 2m0-2C6.7 0 0 6.7 0 15s6.7 15 15 15 15-6.7 15-15S23.3 0 15 0z"/></g></symbol><symbol id="sprite-round-add" viewBox="0 0 30 30"><title>round-add</title><path fill="#009EEF" d="M14.5 7.5h1v15h-1z"/><path fill="#009EEF" d="M7.5 14.5h15v1h-15z"/><path fill="#009EEF" d="M15 2.5c6.9 0 12.5 5.6 12.5 12.5S21.9 27.5 15 27.5 2.5 21.9 2.5 15 8.1 2.5 15 2.5m0-1C7.5 1.5 1.5 7.5 1.5 15s6 13.5 13.5 13.5 13.5-6 13.5-13.5S22.5 1.5 15 1.5z"/></symbol><symbol id="sprite-print" viewBox="0 0 50 50"><title>print</title><path fill="#FFF" stroke="#7B7F7F" stroke-width="2" stroke-miterlimit="10" d="M14.1 17.1V5h22.7v11.9"/><path fill="#FFF" d="M6 17.4h38v20.5H6z"/><path fill="#7B7F7F" d="M43 18.4v18.5H7V18.4h36m2-2H5v22.5h40V16.4z"/><path fill="#FFF" stroke="#7B7F7F" stroke-width="2" stroke-miterlimit="10" d="M36.8 38.2v-8.8H14.1v14.8l16.3.1z"/><path fill="#7B7F7F" d="M30.9 38.3h6.4L30.8 45z"/><ellipse fill="#009EEF" cx="39" cy="22.8" rx="1.6" ry="1.6"/></symbol><symbol id="sprite-open-tabs" viewBox="0 0 30 30"><title>open-tabs</title><g class="frost-svg-link"><path d="M23 14v11H5V7h11V5H6C4.9 5 3 6.9 3 8v16c0 1.1 1.9 3 3 3h16c1.1 0 3-1.9 3-3V14h-2z"/><path d="M27 3v7h-2V6.5l-7.7 7.7-1.4-1.4L23.7 5H20V3z"/></g></symbol><symbol id="sprite-more" viewBox="0 0 35 35"><title>more</title><circle fill="#009EEF" cx="4.5" cy="17.5" r="4"/><circle fill="#009EEF" cx="17.5" cy="17.5" r="4"/><circle fill="#009EEF" cx="30.5" cy="17.5" r="4"/></symbol><symbol id="sprite-menu" viewBox="0 0 48 48"><title>menu</title><path class="base" d="M6 36h36v-4H6v4zm0-10h36v-4H6v4zm0-14v4h36v-4H6z"/></symbol><symbol id="sprite-loading-ripple" viewBox="0 0 100 100"><title>loading-ripple</title><path fill="none" class="bk" d="M0 0h100v100H0z"/><g><animate attributeName="opacity" dur="2s" repeatCount="indefinite" begin="0s" keyTimes="0;0.33;1" values="1;1;0"/><circle cx="50" cy="50" r="40" stroke="#009eef" fill="none" stroke-width="6" stroke-linecap="round"><animate attributeName="r" dur="2s" repeatCount="indefinite" begin="0s" keyTimes="0;0.33;1" values="0;22;44"/></circle></g><g><animate attributeName="opacity" dur="2s" repeatCount="indefinite" begin="1s" keyTimes="0;0.33;1" values="1;1;0"/><circle cx="50" cy="50" r="40" stroke="#009eef" fill="none" stroke-width="6" stroke-linecap="round"><animate attributeName="r" dur="2s" repeatCount="indefinite" begin="1s" keyTimes="0;0.33;1" values="0;22;44"/></circle></g></symbol><symbol id="sprite-loading-ring" viewBox="0 0 100 100"><title>loading-ring</title><path fill="none" class="bk" d="M0 0h100v100H0z"/><circle cx="50" cy="50" r="40" fill="none" stroke-width="10" stroke-linecap="round"/><circle cx="50" cy="50" r="40" stroke="#000" fill="none" stroke-width="6" stroke-linecap="round"><animate attributeName="stroke-dashoffset" dur="2s" repeatCount="indefinite" from="0" to="502"/><animate attributeName="stroke-dasharray" dur="2s" repeatCount="indefinite" values="150.6 100.4;1 250;150.6 100.4"/></circle></symbol><symbol id="sprite-info" viewBox="0 0 80 80"><title>info</title><path fill="#BABCBE" d="M40 9.6c16.7 0 30.2 13.6 30.2 30.2S56.7 70.1 40 70.1 9.8 56.5 9.8 39.8 23.3 9.6 40 9.6m0-4.8c-19.3 0-35 15.7-35 35s15.7 35 35 35 35-15.7 35-35-15.7-35-35-35z"/><circle fill="#7C807F" cx="40" cy="24.5" r="6"/><path fill="#7C807F" d="M40.6 61.5h-1.2c-1.7 0-3-1.3-3-3V37.1c0-1.6 1.3-3 3-3h1.2c1.6 0 3 1.3 3 3v21.4c0 1.7-1.4 3-3 3z"/></symbol><symbol id="sprite-export" viewBox="0 5 40 40"><title>export</title><g id="Layer_4"><path fill="#009EEF" d="M32.1 35.5l-1 1.1v4H6.6V9.5h17.8l.1 7.7h6.6v9.9l1 .9V16.9L25 8.3H5.5v33.3h26.7l-.1-6.1z"/><path fill="#FFF" d="M32.1 28v7.5V28z"/><g fill="#009EEF"><path transform="rotate(134.999 30.129 28.817)" d="M29.1 23.7h2v10.2h-2z"/><path transform="rotate(-134.999 30.202 34.64)" d="M29.2 29.5h2v10.2h-2z"/><path d="M18.7 30.7h13.5v2H18.7z"/></g></g></symbol><symbol id="sprite-expand-collapse" viewBox="0 0 15 15"><title>expand-collapse</title><path fill="#676767" d="M7.5 11.4L1.1 5l1.4-1.4 5 5 5-5L13.9 5z"/></symbol><symbol id="sprite-error" viewBox="0 0 80 80"><title>error</title><path fill="#ED5959" d="M24.3 80L0 55.7V22.4L24.3 0h33.3L80 22.4v33.3L57.6 80z"/><circle fill="#FFF" cx="40.1" cy="58.1" r="4.5"/><path fill="#FFF" d="M45.3 22.5c0-3.6-2.4-6.6-5.5-6.6s-5.3 3.4-5.3 7l3.3 24c0 1.3.9 2.4 2 2.4s2-1.1 2-2.4l3.5-24.4z"/></symbol><symbol id="sprite-email" viewBox="0 0 50 50"><title>email</title><path fill="#FFF" stroke="#737373" stroke-width="2" stroke-miterlimit="10" d="M727.4 252.7v-12.1h22.7v11.9"/><path fill="#FFF" d="M719.4 253h38v20.5h-38z"/><path fill="#737373" d="M756.4 254v18.5h-36V254h36m2-2h-40v22.5h40V252z"/><path fill="#FFF" stroke="#737373" stroke-width="2" stroke-miterlimit="10" d="M750.1 273.8V265h-22.7v14.8l16.4.1z"/><path fill="#737373" d="M744.3 273.8h6.4l-6.6 6.8z"/><ellipse fill="#3B99D4" cx="752.3" cy="258.3" rx="1.6" ry="1.6"/><g><path fill="#FFF" d="M3.5 10.5h43v29h-43z"/><path fill="#737373" d="M45.5 11.5v27h-41v-27h41m2-2h-45v31h45v-31z"/><path fill="none" stroke="#737373" stroke-width="2" stroke-miterlimit="10" d="M2.8 14.1l21.9 12.1 21.9-12.6"/></g></symbol><symbol id="sprite-close" viewBox="0 0 48 48"><title>close</title><path class="base" d="M38 12.83L35.17 10 24 21.17 12.83 10 10 12.83 21.17 24 10 35.17 12.83 38 24 26.83 35.17 38 38 35.17 26.83 24z"/></symbol><symbol id="sprite-chevron" viewBox="0 0 48 48"><title>chevron</title><path class="base" d="M30.83 14.83L28 12 16 24l12 12 2.83-2.83L21.66 24z"/></symbol><symbol id="sprite-chevron-double" viewBox="0 0 48 48"><title>chevron-double</title><path class="base" d="M24.83 14.83L22 12 10 24l12 12 2.83-2.83L15.66 24z"/><path class="base" d="M38.798 14.855l-2.83-2.83-12 12 12 12 2.83-2.83-9.17-9.17z"/></symbol><symbol id="sprite-checkbox" viewBox="0 0 20 20"><title>checkbox</title><linearGradient id="checkbox-gradient" gradientUnits="userSpaceOnUse" x1="10" y1=".5" x2="10" y2="19.5"><stop offset="0" stop-color="#fff"/><stop offset="1" stop-color="#f2f2f2"/></linearGradient><path fill="url(#checkbox-gradient)" d="M.5.5h19v19H.5z"/><path fill="#CCCBCB" d="M19 1v18H1V1h18m1-1H0v20h20V0z"/></symbol><symbol id="sprite-checkbox-hover" viewBox="0 0 20 20"><title>checkbox-hover</title><linearGradient id="checkbox-hover-gradient" gradientUnits="userSpaceOnUse" x1="10" y1=".5" x2="10" y2="19.5"><stop offset="0" stop-color="#fff"/><stop offset="1" stop-color="#f2f2f2"/></linearGradient><path fill="url(#checkbox-hover-gradient)" d="M.5.5h19v19H.5z"/><path fill="#CCC" d="M19 1v18H1V1h18m1-1H0v20h20V0z"/><path fill="#009EEF" d="M0 0h20v20H0z" opacity=".08"/></symbol><symbol id="sprite-checkbox-hover-checked" viewBox="0 0 20 20"><title>checkbox-hover-checked</title><linearGradient id="checkbox-hover-checked-gradient" gradientUnits="userSpaceOnUse" x1="10" y1=".5" x2="10" y2="19.5"><stop offset="0" stop-color="#fff"/><stop offset="1" stop-color="#f2f2f2"/></linearGradient><path fill="url(#checkbox-hover-checked-gradient)" d="M.5.5h19v19H.5z"/><path fill="#CCC" d="M19 1v18H1V1h18m1-1H0v20h20V0z"/><path fill="#009EEF" d="M0 0h20v20H0z" opacity=".08"/><path transform="rotate(-45.001 6.854 11.75)" fill="#009EEF" d="M5.9 8.8h2v5.9h-2z"/><path fill="#009EEF" d="M8.5 14.5l-1.4-1.4L15 5.4l1.4 1.5z"/></symbol><symbol id="sprite-checkbox-error" viewBox="0 0 20 20"><title>checkbox-error</title><linearGradient id="checkbox-error-gradient" gradientUnits="userSpaceOnUse" x1="10" y1=".5" x2="10" y2="19.5"><stop offset="0" stop-color="#fff"/><stop offset="1" stop-color="#f2f2f2"/></linearGradient><path fill="url(#checkbox-error-gradient)" d="M.5.5h19v19H.5z"/><path fill="#D1625E" d="M19 1v18H1V1h18m1-1H0v20h20V0z"/></symbol><symbol id="sprite-checkbox-disabled" viewBox="0 0 20 20"><title>checkbox-disabled</title><path opacity=".8" fill="#F3F3F3" d="M0 0h20v20H0z"/></symbol><symbol id="sprite-checkbox-disabled-checked" viewBox="0 0 20 20"><title>checkbox-disabled-checked</title><path opacity=".8" fill="#F3F3F3" d="M0 0h20v20H0z"/><g opacity=".4" fill="#888"><path transform="rotate(-45.001 6.612 11.622)" d="M5.6 8.7h2v5.9h-2z"/><path d="M8.3 14.4L6.9 13l7.9-7.7 1.4 1.4z"/></g></symbol><symbol id="sprite-checkbox-checked" viewBox="0 0 20 20"><title>checkbox-checked</title><linearGradient id="checkbox-checked-gradient" gradientUnits="userSpaceOnUse" x1="10" y1=".5" x2="10" y2="19.5"><stop offset="0" stop-color="#fff"/><stop offset="1" stop-color="#f2f2f2"/></linearGradient><path fill="url(#checkbox-checked-gradient)" d="M.5.5h19v19H.5z"/><path fill="#CCCBCB" d="M19 1v18H1V1h18m1-1H0v20h20V0z"/><path transform="rotate(-45.001 6.854 11.75)" fill="#009EEF" d="M5.9 8.8h2v5.9h-2z"/><path fill="#009EEF" d="M8.5 14.5l-1.4-1.4L15 5.4l1.4 1.5z"/></symbol><symbol id="sprite-add" viewBox="55 0 40 40"><title>add</title><path d="M57.9 17.9h33.3V22H57.9z"/><path d="M72.5 3.3h4.1v33.3h-4.1z"/></symbol><use xlink:href="#sprite-add" width="40" height="40"/><use xlink:href="#sprite-checkbox-checked" y="42" width="20" height="20"/><use xlink:href="#sprite-checkbox-disabled-checked" y="64" width="20" height="20"/><use xlink:href="#sprite-checkbox-disabled" y="86" width="20" height="20"/><use xlink:href="#sprite-checkbox-error" y="108" width="20" height="20"/><use xlink:href="#sprite-checkbox-hover-checked" y="130" width="20" height="20"/><use xlink:href="#sprite-checkbox-hover" y="152" width="20" height="20"/><use xlink:href="#sprite-checkbox" y="174" width="20" height="20"/><use xlink:href="#sprite-chevron-double" y="196" width="48" height="48"/><use xlink:href="#sprite-chevron" y="246" width="48" height="48"/><use xlink:href="#sprite-close" y="296" width="48" height="48"/><use xlink:href="#sprite-email" y="346" width="50" height="50"/><use xlink:href="#sprite-error" y="398" width="80" height="80"/><use xlink:href="#sprite-expand-collapse" y="480" width="15" height="15"/><use xlink:href="#sprite-export" y="497" width="40" height="40"/><use xlink:href="#sprite-info" y="539" width="80" height="80"/><use xlink:href="#sprite-loading-ring" y="621" width="120" height="120"/><use xlink:href="#sprite-loading-ripple" y="743" width="100" height="100"/><use xlink:href="#sprite-menu" y="845" width="48" height="48"/><use xlink:href="#sprite-more" y="895" width="35" height="35"/><use xlink:href="#sprite-open-tabs" y="932" width="30" height="30"/><use xlink:href="#sprite-print" y="964" width="50" height="50"/><use xlink:href="#sprite-round-add" y="1016" width="30" height="30"/><use xlink:href="#sprite-round-close" y="1048" width="30" height="30"/><use xlink:href="#sprite-round-remove" y="1080" width="30" height="30"/><use xlink:href="#sprite-view-large" y="1112" width="10" height="10"/><use xlink:href="#sprite-view-medium" y="1124" width="10" height="10"/><use xlink:href="#sprite-view-small" y="1136" width="10" height="10"/><use xlink:href="#sprite-warning" y="1148" width="80" height="80"/></svg>